<?xml version="1.0" encoding="UTF-8" standalone="no"?>
<!DOCTYPE svg PUBLIC "-//W3C//DTD SVG 1.1//EN"
 "http://www.w3.org/Graphics/SVG/1.1/DTD/svg11.dtd">
<!-- Generated by graphviz version 2.42.4 (0)
 -->
<!-- Title: G Pages: 1 -->
<svg width="1337pt" height="188pt"
 viewBox="0.00 0.00 1337.40 188.40" xmlns="http://www.w3.org/2000/svg" xmlns:xlink="http://www.w3.org/1999/xlink">
<g id="graph0" class="graph" transform="scale(1 1) rotate(0) translate(25.2 163.2)">
<title>G</title>
<text text-anchor="middle" x="643.5" y="-114.8" font-family="Inter" font-size="24.00" fill="#dff9ee">Flux de stockage de fichiers</text>
<!-- admin -->
<g id="node1" class="node">
<title>admin</title>
<path fill="#10362d" stroke="#3e9277" d="M68,-69C68,-69 12,-69 12,-69 6,-69 0,-63 0,-57 0,-57 0,-45 0,-45 0,-39 6,-33 12,-33 12,-33 68,-33 68,-33 74,-33 80,-39 80,-45 80,-45 80,-57 80,-57 80,-63 74,-69 68,-69"/>
<text text-anchor="middle" x="40" y="-54.6" font-family="Inter" font-size="10.50" fill="#f0fff9">Admin React</text>
<text text-anchor="middle" x="40" y="-42.6" font-family="Inter" font-size="10.50" fill="#f0fff9">file picker</text>
</g>
<!-- csrf -->
<g id="node2" class="node">
<title>csrf</title>
<path fill="#10362d" stroke="#3e9277" d="M227,-69C227,-69 141,-69 141,-69 135,-69 129,-63 129,-57 129,-57 129,-45 129,-45 129,-39 135,-33 141,-33 141,-33 227,-33 227,-33 233,-33 239,-39 239,-45 239,-45 239,-57 239,-57 239,-63 233,-69 227,-69"/>
<text text-anchor="middle" x="184" y="-54.6" font-family="Inter" font-size="10.50" fill="#f0fff9">authApi</text>
<text text-anchor="middle" x="184" y="-42.6" font-family="Inter" font-size="10.50" fill="#f0fff9">credentials + CSRF</text>
</g>
<!-- admin&#45;&gt;csrf -->
<g id="edge1" class="edge">
<title>admin&#45;&gt;csrf</title>
<path fill="none" stroke="#66c9a7" d="M80.11,-51C80.11,-51 118.77,-51 118.77,-51"/>
<polygon fill="#66c9a7" stroke="#66c9a7" points="118.77,-54.5 128.77,-51 118.77,-47.5 118.77,-54.5"/>
</g>
<!-- upload -->
<g id="node3" class="node">
<title>upload</title>
<path fill="#10362d" stroke="#3e9277" d="M392,-69C392,-69 300,-69 300,-69 294,-69 288,-63 288,-57 288,-57 288,-45 288,-45 288,-39 294,-33 300,-33 300,-33 392,-33 392,-33 398,-33 404,-39 404,-45 404,-45 404,-57 404,-57 404,-63 398,-69 392,-69"/>
<text text-anchor="middle" x="346" y="-48.6" font-family="Inter" font-size="10.50" fill="#f0fff9">FileUploadController</text>
</g>
<!-- csrf&#45;&gt;upload -->
<g id="edge2" class="edge">
<title>csrf&#45;&gt;upload</title>
<path fill="none" stroke="#66c9a7" d="M239.3,-51C239.3,-51 277.91,-51 277.91,-51"/>
<polygon fill="#66c9a7" stroke="#66c9a7" points="277.91,-54.5 287.91,-51 277.91,-47.5 277.91,-54.5"/>
</g>
<!-- policy -->
<g id="node4" class="node">
<title>policy</title>
<path fill="#10362d" stroke="#3e9277" d="M542,-69C542,-69 465,-69 465,-69 459,-69 453,-63 453,-57 453,-57 453,-45 453,-45 453,-39 459,-33 465,-33 465,-33 542,-33 542,-33 548,-33 554,-39 554,-45 554,-45 554,-57 554,-57 554,-63 548,-69 542,-69"/>
<text text-anchor="middle" x="503.5" y="-54.6" font-family="Inter" font-size="10.50" fill="#f0fff9">UploadPolicy</text>
<text text-anchor="middle" x="503.5" y="-42.6" font-family="Inter" font-size="10.50" fill="#f0fff9">nom · taille · type</text>
</g>
<!-- upload&#45;&gt;policy -->
<g id="edge3" class="edge">
<title>upload&#45;&gt;policy</title>
<path fill="none" stroke="#66c9a7" d="M404.2,-51C404.2,-51 442.8,-51 442.8,-51"/>
<polygon fill="#66c9a7" stroke="#66c9a7" points="442.8,-54.5 452.8,-51 442.8,-47.5 442.8,-54.5"/>
</g>
<!-- abstraction -->
<g id="node5" class="node">
<title>abstraction</title>
<path fill="#10362d" stroke="#3e9277" d="M683,-69C683,-69 615,-69 615,-69 609,-69 603,-63 603,-57 603,-57 603,-45 603,-45 603,-39 609,-33 615,-33 615,-33 683,-33 683,-33 689,-33 695,-39 695,-45 695,-45 695,-57 695,-57 695,-63 689,-69 683,-69"/>
<text text-anchor="middle" x="649" y="-48.6" font-family="Inter" font-size="10.50" fill="#f0fff9">StorageService</text>
</g>
<!-- policy&#45;&gt;abstraction -->
<g id="edge4" class="edge">
<title>policy&#45;&gt;abstraction</title>
<path fill="none" stroke="#66c9a7" d="M554.39,-51C554.39,-51 592.76,-51 592.76,-51"/>
<polygon fill="#66c9a7" stroke="#66c9a7" points="592.76,-54.5 602.76,-51 592.76,-47.5 592.76,-54.5"/>
</g>
<!-- local -->
<g id="node6" class="node">
<title>local</title>
<path fill="#10362d" stroke="#3e9277" d="M958,-104C958,-104 838,-104 838,-104 832,-104 826,-98 826,-92 826,-92 826,-80 826,-80 826,-74 832,-68 838,-68 838,-68 958,-68 958,-68 964,-68 970,-74 970,-80 970,-80 970,-92 970,-92 970,-98 964,-104 958,-104"/>
<text text-anchor="middle" x="898" y="-89.6" font-family="Inter" font-size="10.50" fill="#f0fff9">FileSystemStorageService</text>
<text text-anchor="middle" x="898" y="-77.6" font-family="Inter" font-size="10.50" fill="#f0fff9">développement</text>
</g>
<!-- abstraction&#45;&gt;local -->
<g id="edge5" class="edge">
<title>abstraction&#45;&gt;local</title>
<path fill="none" stroke="#66c9a7" stroke-dasharray="5,2" d="M649,-69.17C649,-77.9 649,-86.5 649,-86.5 649,-86.5 815.98,-86.5 815.98,-86.5"/>
<polygon fill="#66c9a7" stroke="#66c9a7" points="815.98,-90 825.98,-86.5 815.98,-83 815.98,-90"/>
<text text-anchor="middle" x="760.5" y="-82.8" font-family="Inter" font-size="9.00" fill="#b6ead9">provider local</text>
</g>
<!-- cloud -->
<g id="node7" class="node">
<title>cloud</title>
<path fill="#10362d" stroke="#3e9277" d="M958,-36C958,-36 838,-36 838,-36 832,-36 826,-30 826,-24 826,-24 826,-12 826,-12 826,-6 832,0 838,0 838,0 958,0 958,0 964,0 970,-6 970,-12 970,-12 970,-24 970,-24 970,-30 964,-36 958,-36"/>
<text text-anchor="middle" x="898" y="-21.6" font-family="Inter" font-size="10.50" fill="#f0fff9">CloudinaryStorageService</text>
<text text-anchor="middle" x="898" y="-9.6" font-family="Inter" font-size="10.50" fill="#f0fff9">production</text>
</g>
<!-- abstraction&#45;&gt;cloud -->
<g id="edge6" class="edge">
<title>abstraction&#45;&gt;cloud</title>
<path fill="none" stroke="#66c9a7" d="M649,-32.94C649,-24.59 649,-16.5 649,-16.5 649,-16.5 815.98,-16.5 815.98,-16.5"/>
<polygon fill="#66c9a7" stroke="#66c9a7" points="815.98,-20 825.98,-16.5 815.98,-13 815.98,-20"/>
<text text-anchor="middle" x="760.5" y="-30.8" font-family="Inter" font-size="9.00" fill="#b6ead9">provider cloudinary</text>
</g>
<!-- url -->
<g id="node8" class="node">
<title>url</title>
<path fill="#10362d" stroke="#3e9277" d="M1137,-69C1137,-69 1031,-69 1031,-69 1025,-69 1019,-63 1019,-57 1019,-57 1019,-45 1019,-45 1019,-39 1025,-33 1031,-33 1031,-33 1137,-33 1137,-33 1143,-33 1149,-39 1149,-45 1149,-45 1149,-57 1149,-57 1149,-63 1143,-69 1137,-69"/>
<text text-anchor="middle" x="1084" y="-54.6" font-family="Inter" font-size="10.50" fill="#f0fff9">URL publique persistée</text>
<text text-anchor="middle" x="1084" y="-42.6" font-family="Inter" font-size="10.50" fill="#f0fff9">dans Profile / Project</text>
</g>
<!-- local&#45;&gt;url -->
<g id="edge7" class="edge">
<title>local&#45;&gt;url</title>
<path fill="none" stroke="#66c9a7" d="M970.18,-86.5C1022.46,-86.5 1084,-86.5 1084,-86.5 1084,-86.5 1084,-79.17 1084,-79.17"/>
<polygon fill="#66c9a7" stroke="#66c9a7" points="1087.5,-79.17 1084,-69.17 1080.5,-79.17 1087.5,-79.17"/>
</g>
<!-- cloud&#45;&gt;url -->
<g id="edge8" class="edge">
<title>cloud&#45;&gt;url</title>
<path fill="none" stroke="#66c9a7" d="M970.18,-16.5C1022.46,-16.5 1084,-16.5 1084,-16.5 1084,-16.5 1084,-22.94 1084,-22.94"/>
<polygon fill="#66c9a7" stroke="#66c9a7" points="1080.5,-22.94 1084,-32.94 1087.5,-22.94 1080.5,-22.94"/>
</g>
<!-- public -->
<g id="node9" class="node">
<title>public</title>
<path fill="#10362d" stroke="#3e9277" d="M1275,-69C1275,-69 1210,-69 1210,-69 1204,-69 1198,-63 1198,-57 1198,-57 1198,-45 1198,-45 1198,-39 1204,-33 1210,-33 1210,-33 1275,-33 1275,-33 1281,-33 1287,-39 1287,-45 1287,-45 1287,-57 1287,-57 1287,-63 1281,-69 1275,-69"/>
<text text-anchor="middle" x="1242.5" y="-48.6" font-family="Inter" font-size="10.50" fill="#f0fff9">Portfolio public</text>
</g>
<!-- url&#45;&gt;public -->
<g id="edge9" class="edge">
<title>url&#45;&gt;public</title>
<path fill="none" stroke="#66c9a7" d="M1149.38,-51C1149.38,-51 1187.56,-51 1187.56,-51"/>
<polygon fill="#66c9a7" stroke="#66c9a7" points="1187.56,-54.5 1197.56,-51 1187.56,-47.5 1187.56,-54.5"/>
</g>
</g>
</svg>
