<svg xmlns="http://www.w3.org/2000/svg" width="1024" height="512" viewBox="0 0 1024 512">
  <defs>
    <linearGradient id="shine" x1="0" y1="0" x2="1" y2="1">
      <stop offset="0" stop-color="#ffffff" stop-opacity="0.55"/>
      <stop offset="0.3" stop-color="#ffffff" stop-opacity="0.08"/>
      <stop offset="0.8" stop-color="#000000" stop-opacity="0.16"/>
      <stop offset="1" stop-color="#000000" stop-opacity="0.26"/>
    </linearGradient>
    <filter id="soft" x="-20%" y="-20%" width="140%" height="140%">
      <feGaussianBlur stdDeviation="5"/>
    </filter>
  </defs>

  <rect width="1024" height="512" fill="#f8fafc"/>

  <path d="M0 0H146V512H0z" fill="#fefefe"/>
  <path d="M146 0H292V512H146z" fill="#ef4444"/>
  <path d="M292 0H438V512H292z" fill="#fefefe"/>
  <path d="M438 0H584V512H438z" fill="#facc15"/>
  <path d="M584 0H730V512H584z" fill="#fefefe"/>
  <path d="M730 0H876V512H730z" fill="#0ea5e9"/>
  <path d="M876 0H1024V512H876z" fill="#fefefe"/>

  <path d="M0 0 C92 74 92 438 0 512H1024C930 438 930 74 1024 0Z" fill="url(#shine)" opacity="0.58"/>
  <path d="M0 0H1024V42H0z" fill="#ef4444" opacity="0.96"/>
  <path d="M0 470H1024V512H0z" fill="#ef4444" opacity="0.96"/>

  <g opacity="0.3" filter="url(#soft)">
    <ellipse cx="238" cy="118" rx="132" ry="34" fill="#ffffff"/>
    <ellipse cx="742" cy="96" rx="162" ry="38" fill="#ffffff"/>
  </g>

  <g opacity="0.28">
    <path d="M146 0 C132 128 132 384 146 512" fill="none" stroke="#0f172a" stroke-width="3"/>
    <path d="M292 0 C306 128 306 384 292 512" fill="none" stroke="#0f172a" stroke-width="3"/>
    <path d="M438 0 C424 128 424 384 438 512" fill="none" stroke="#0f172a" stroke-width="3"/>
    <path d="M584 0 C598 128 598 384 584 512" fill="none" stroke="#0f172a" stroke-width="3"/>
    <path d="M730 0 C716 128 716 384 730 512" fill="none" stroke="#0f172a" stroke-width="3"/>
    <path d="M876 0 C890 128 890 384 876 512" fill="none" stroke="#0f172a" stroke-width="3"/>
  </g>
</svg>
